<svg class="editIcon" xmlns="http://www.w3.org/2000/svg" data-name="Layer 1" viewBox="0 0 100 125" x="0px" y="0px">
  <path d="M33.72473,50.3136,30.713,66.36951a2.50032,2.50032,0,0,0,2.91821,2.91821L49.6864,66.27527a2.50207,2.50207,0,0,0,1.30683-.68952L93.24182,23.33716c3.14368-3.14362,1.96491-9.24726-2.683-13.89527C85.9101,4.79321,79.80646,3.6145,76.66278,6.75812L34.41418,49.00671A2.50264,2.50264,0,0,0,33.72473,50.3136Zm4.77191,1.68176L80.19836,10.2937c.8241-.82416,3.96674-.17438,6.82489,2.68372,2.85743,2.85742,3.50721,6.00006,2.683,6.82422L48.00464,61.50336,36.30109,63.69958Z" />
  <path d="M7.5,95H81.74414a2.49981,2.49981,0,0,0,2.5-2.5V52.134l-5,4.99994V90H10V20.75635H42.86542l5.00006-5H7.5a2.49981,2.49981,0,0,0-2.5,2.5V92.5A2.49981,2.49981,0,0,0,7.5,95Z" />
</svg>