<svg xmlns="http://www.w3.org/2000/svg" xmlns:xlink="http://www.w3.org/1999/xlink" version="1.1" x="0px" y="0px" viewBox="0 0 96 120" style="enable-background:new 0 0 96 96;" xml:space="preserve">
	<style type="text/css">
	.st0{fill-rule:evenodd;clip-rule:evenodd;}
</style>
	<g>
		<path fill="white" class="st0" d="M14.1,50H2.9c-1.3,0-2.3-1-2.3-2.2c0-0.7,0.3-1.3,0.8-1.8L46.3,5.7c0.9-0.8,2.2-0.8,3,0l45.4,40.4   c0.9,0.8,1,2.2,0.2,3.2c-0.4,0.5-1.1,0.8-1.7,0.8H81.8v38.6c0,1.2-1,2.2-2.2,2.2h-19c-1.3,0-2.3-1-2.3-2.2V63.8H36.7v24.8   c0,1.2-1,2.2-2.3,2.2h-18c-1.3,0-2.3-1-2.3-2.2V50z" />
	</g>
</svg>