<svg xmlns="http://www.w3.org/2000/svg" xmlns:xlink="http://www.w3.org/1999/xlink" viewBox="0 0 24 30" version="1.1" x="0px" y="0px">
  <g stroke="none" stroke-width="1" fill="none" fill-rule="evenodd">
    <path d="M6,7 L6,2 L18,2 L18,7 L23,7 L23,19 L18,19 L18,22 L6,22 L6,19 L1,19 L1,7 L6,7 Z M6,9 L3,9 L3,17 L6,17 L6,14 L18,14 L18,17 L21,17 L21,9 L18,9 L18,10 L6,10 L6,9 Z M8,4 L8,8 L16,8 L16,4 L8,4 Z M8,16 L8,20 L16,20 L16,16 L8,16 Z M18,13 C17.4477153,13 17,12.5522847 17,12 C17,11.4477153 17.4477153,11 18,11 C18.5522847,11 19,11.4477153 19,12 C19,12.5522847 18.5522847,13 18,13 Z" fill="white" fill-rule="nonzero" />
  </g>
</svg>